<svg width="58" height="108" viewBox="0 0 58 108" fill="none" xmlns="http://www.w3.org/2000/svg">
<g filter="url(#filter0_ii_135_1455)">
<path d="M3.09556 21.544C2.97477 13.9277 8.08072 7.24221 15.4127 5.07901L15.8285 4.95631C23.6775 2.64056 31.963 2.39762 39.8724 4.2513C47.0082 5.9237 52.1385 12.0903 52.4833 19.4358C52.8927 28.1551 53.4675 40.772 54.058 54.9444C54.5175 65.9725 54.6402 77.0572 54.641 85.7236C54.6418 95.2985 47.6054 103.442 38.1509 105.056L37.6604 105.14C32.8393 105.963 27.9367 106.106 23.0959 105.567C14.1964 104.575 7.37354 97.3406 6.81871 88.39C6.32411 80.411 5.62092 69.7204 4.69859 57.2168C3.63312 42.7725 3.23356 30.246 3.09556 21.544Z" fill="url(#paint0_linear_135_1455)"/>
</g>
<path d="M10.2297 39.398C8.62724 33.7214 11.9443 27.3542 17.7288 26.0001L18.0761 25.9188C24.6745 24.3742 31.4939 24.1646 38.1308 25.3022C43.7445 26.2645 47.1374 32.2133 45.9399 37.8217C44.7284 43.4958 43.7028 51.0012 44.0946 59.2524C44.4151 66.0002 45.704 72.7418 47.0677 78.231C48.6498 84.5993 44.4966 91.432 37.963 92.3405L37.0409 92.4687C32.2552 93.1341 27.4203 93.2831 22.6196 92.9132C16.4918 92.4409 12.4023 85.911 13.4299 79.8217C14.3008 74.6609 14.8333 68.0947 14.1632 60.6013C13.4165 52.2515 11.7899 44.9246 10.2297 39.398Z" fill="#A7A5A5"/>
<g filter="url(#filter1_di_135_1455)">
<path fill-rule="evenodd" clip-rule="evenodd" d="M6.16138 24.59C6.33209 16.2478 11.5857 8.81681 19.3121 5.56527C24.2613 3.48249 29.7829 3.19868 34.8568 4.78187C43.0799 7.34769 48.8456 14.6715 49.3881 23.305C49.4875 24.8882 49.5914 26.5574 49.6978 28.2881C49.7332 28.8639 48.992 29.1984 48.5418 28.8377C48.064 28.455 47.448 29.0185 47.6534 29.5953C48.3394 31.5214 48.5434 33.6545 48.157 35.7678C46.9891 42.1555 45.9883 50.7646 46.4491 60.2799C46.8072 67.6719 48.2237 75.0568 49.7411 81.1232C50.4099 83.7968 50.1948 86.5449 49.2849 89.0036C49.0751 89.5707 49.7095 90.1167 50.162 89.7156C50.5696 89.3542 51.2645 89.6469 51.2439 90.1913C51.2065 91.1818 51.1691 92.1016 51.1334 92.9385C50.998 96.1148 48.8635 98.8619 45.8276 99.8392L44.9272 100.129C35.4298 103.187 25.31 103.544 15.7065 101.16C12.8974 100.463 10.8191 98.135 10.471 95.2542C10.3423 94.1899 10.1966 92.9683 10.0378 91.6115C9.95782 90.9284 10.92 90.5013 11.4418 90.9493C11.9687 91.4017 12.6609 90.7595 12.409 90.1123C11.5349 87.8658 11.2259 85.363 11.6329 82.9252C12.5868 77.2128 13.1519 70.0042 12.4044 61.802C11.5622 52.5596 9.73827 44.4393 7.9786 38.2846C7.39789 36.2536 7.37675 34.1415 7.82679 32.1555C7.93423 31.6814 7.3666 31.3326 7.0702 31.718C6.77676 32.0995 6.05727 31.8998 6.06141 31.4185C6.08214 29.0133 6.11785 26.7173 6.16138 24.59ZM11.0341 37.5685C9.51658 32.1482 12.6757 26.0982 18.1878 24.778L18.5294 24.6962C25.0527 23.1338 31.8065 22.9279 38.3699 24.0913C43.7208 25.0399 46.957 30.687 45.82 36.0383C44.6101 41.7329 43.5566 49.3858 43.9542 57.8245C44.28 64.7397 45.6007 71.6496 46.9691 77.1971C48.4741 83.298 44.4935 89.8121 38.2403 90.6988L37.3434 90.8259C32.5906 91.4999 27.7862 91.6467 23.0179 91.2637C17.1441 90.7919 13.2228 84.5765 14.2166 78.7403C15.1027 73.5366 15.6673 66.8271 14.991 59.1335C14.2397 50.588 12.588 43.1185 11.0341 37.5685Z" fill="url(#paint1_linear_135_1455)"/>
</g>
<g filter="url(#filter2_di_135_1455)">
<path d="M7.22121 30.3048C6.87891 29.4248 7.40135 28.4176 8.32847 28.2006L27.7773 23.6479C27.9733 23.602 28.1759 23.5958 28.373 23.6296L47.1845 26.8542C48.1155 27.0138 48.6686 27.9851 48.3632 28.8874C46.9028 33.202 43.4242 45.1358 44.0946 59.2524C44.6884 71.756 48.6074 84.2386 50.1661 88.7705C50.4814 89.687 49.8711 90.6847 48.9049 90.8191L30.0023 93.4474C29.8954 93.4622 29.7875 93.4655 29.6802 93.4573L12.2228 92.112C11.2004 92.0332 10.5469 90.9685 10.886 89.9931C12.3678 85.7303 15.4365 74.8396 14.1632 60.6013C12.8539 45.9609 8.83962 34.4651 7.22121 30.3048Z" fill="url(#paint2_linear_135_1455)"/>
</g>
<g filter="url(#filter3_d_135_1455)">
<g filter="url(#filter4_d_135_1455)">
<mask id="path-5-inside-1_135_1455" fill="white">
<path d="M47.7866 12.7736C46.5354 10.9085 44.9458 10.0456 43.5346 9.71052C42.374 9.43499 41.9917 10.7734 42.7984 11.6575C44.5866 13.6173 46.2232 16.0629 47.4772 18.1988C48.1755 19.3883 49.7466 19.1437 49.5834 17.7869C49.3914 16.1906 48.8795 14.4028 47.7866 12.7736Z"/>
</mask>
<path d="M47.7866 12.7736C46.5354 10.9085 44.9458 10.0456 43.5346 9.71052C42.374 9.43499 41.9917 10.7734 42.7984 11.6575C44.5866 13.6173 46.2232 16.0629 47.4772 18.1988C48.1755 19.3883 49.7466 19.1437 49.5834 17.7869C49.3914 16.1906 48.8795 14.4028 47.7866 12.7736Z" fill="white"/>
<path d="M43.5346 9.71052L42.616 13.9292L42.616 13.9292L43.5346 9.71052ZM47.7866 12.7736L44.1697 15.1191L47.7866 12.7736ZM49.5834 17.7869L53.9202 17.3742L49.5834 17.7869ZM47.4772 18.1988L43.7173 20.3169L47.4772 18.1988ZM42.7984 11.6575L46.0028 8.78629L42.7984 11.6575ZM44.4531 5.49189C46.8683 6.06531 49.468 7.54272 51.4036 10.4281L44.1697 15.1191C43.8632 14.6623 43.5679 14.4014 43.333 14.2436C43.0916 14.0813 42.8483 13.9843 42.616 13.9292L44.4531 5.49189ZM51.4036 10.4281C52.98 12.7781 53.6677 15.2755 53.9202 17.3742L45.2465 18.1996C45.115 17.1057 44.779 16.0275 44.1697 15.1191L51.4036 10.4281ZM43.7173 20.3169C42.5444 18.3189 41.0884 16.1665 39.594 14.5287L46.0028 8.78629C48.0849 11.068 49.9021 13.8068 51.237 16.0808L43.7173 20.3169ZM53.9202 17.3742C54.0632 18.563 53.8623 19.9197 53.0381 21.1088C52.2153 22.2961 50.9889 22.993 49.7255 23.2186C47.2032 23.669 44.8844 22.3048 43.7173 20.3169L51.237 16.0808C50.7683 15.2824 49.5842 14.3906 47.9812 14.6768C47.1774 14.8203 46.3569 15.276 45.8045 16.073C45.2509 16.8719 45.1852 17.6892 45.2465 18.1996L53.9202 17.3742ZM42.616 13.9292C43.1947 14.0665 44.0779 14.0802 44.971 13.5986C45.8452 13.1271 46.3456 12.3859 46.57 11.7269C46.9919 10.4875 46.5646 9.40193 46.0028 8.78629L39.594 14.5287C38.2256 13.029 37.5861 10.8322 38.2876 8.77146C38.6518 7.70179 39.4149 6.62232 40.662 5.94978C41.928 5.26705 43.2942 5.21673 44.4531 5.49189L42.616 13.9292Z" fill="white" mask="url(#path-5-inside-1_135_1455)"/>
</g>
</g>
<g filter="url(#filter5_d_135_1455)">
<mask id="path-7-inside-2_135_1455" fill="white">
<path d="M6.30937 14.7939C7.39924 12.6733 8.98785 11.6041 10.4355 11.1185C11.5621 10.7405 12.0978 12.038 11.3962 13.0005C9.72513 15.2927 8.28516 18.1193 7.23248 20.5358C6.68429 21.7942 5.0902 21.7207 5.07351 20.3539C5.05257 18.6396 5.34873 16.6631 6.30937 14.7939Z"/>
</mask>
<path d="M6.30937 14.7939C7.39924 12.6733 8.98785 11.6041 10.4355 11.1185C11.5621 10.7405 12.0978 12.038 11.3962 13.0005C9.72513 15.2927 8.28516 18.1193 7.23248 20.5358C6.68429 21.7942 5.0902 21.7207 5.07351 20.3539C5.05257 18.6396 5.34873 16.6631 6.30937 14.7939Z" fill="white"/>
<path d="M10.4355 11.1185L9.09321 6.99021L10.4355 11.1185ZM6.30937 14.7939L10.1764 16.7512L6.30937 14.7939ZM5.07351 20.3539L0.720303 20.4561L5.07351 20.3539ZM7.23248 20.5358L11.2203 22.2383L7.23248 20.5358ZM11.3962 13.0005L7.88885 10.4596L7.88885 10.4596L11.3962 13.0005ZM9.09321 6.99021C6.66138 7.80608 4.10827 9.59515 2.44237 12.8366L10.1764 16.7512C10.4533 16.2124 10.7485 15.8878 10.996 15.6824C11.2504 15.4711 11.5177 15.334 11.7777 15.2467L9.09321 6.99021ZM2.44237 12.8366C1.07279 15.5015 0.693083 18.2277 0.720303 20.4561L9.42671 20.2518C9.41205 19.0515 9.62467 17.8247 10.1764 16.7512L2.44237 12.8366ZM11.2203 22.2383C12.209 19.9687 13.4995 17.4673 14.9035 15.5413L7.88885 10.4596C5.9508 13.1181 4.36129 16.27 3.24466 18.8333L11.2203 22.2383ZM0.720303 20.4561C0.735002 21.6594 1.1155 22.9792 2.08101 24.0596C3.04319 25.1362 4.33675 25.6885 5.60971 25.7751C8.15548 25.9483 10.2981 24.3553 11.2203 22.2383L3.24466 18.8333C3.61869 17.9747 4.69015 16.9741 6.29766 17.0835C7.10148 17.1382 7.95914 17.4945 8.60059 18.2123C9.24539 18.9338 9.42036 19.7318 9.42671 20.2518L0.720303 20.4561ZM11.7777 15.2467C11.215 15.4355 10.35 15.5229 9.42786 15.1333C8.52633 14.7524 7.9544 14.0764 7.65892 13.4485C7.10127 12.2637 7.395 11.137 7.88885 10.4596L14.9035 15.5413C16.099 13.9014 16.4757 11.6448 15.5439 9.66503C15.0614 8.63975 14.1882 7.65003 12.8912 7.10209C11.5737 6.54544 10.2193 6.6124 9.09321 6.99021L11.7777 15.2467Z" fill="white" mask="url(#path-7-inside-2_135_1455)"/>
</g>
<g filter="url(#filter6_di_135_1455)">
<path fill-rule="evenodd" clip-rule="evenodd" d="M14.5562 22.0333C9.78463 23.2241 6.27252 27.3136 6.12447 32.2167C5.93863 38.3715 5.94365 47.5812 6.85629 58.4073C7.69826 68.3951 8.55268 76.8693 9.19562 82.8386C9.47716 85.4525 10.6138 87.7789 12.3202 89.5522C11.5113 87.3537 11.2351 84.9268 11.6273 82.5637C12.5523 76.9909 13.0873 70.0095 12.3596 62.0875C11.5384 53.1467 9.76848 45.2732 8.04179 39.2544C6.18733 32.7903 9.9693 25.4849 16.5734 23.9823L17.0558 23.8725C24.4155 22.1979 32.0113 22.0069 39.3971 23.3106C45.4497 24.379 49.191 30.6439 48.0743 36.7286C46.9257 42.9868 45.9572 51.3443 46.4043 60.5652C46.7508 67.7102 48.1175 74.8479 49.5993 80.7567C50.0745 82.6516 50.1078 84.5853 49.7659 86.4287C50.7958 84.7281 51.419 82.7637 51.5053 80.6632C51.7706 74.2001 51.9478 65.4461 51.5544 56.7759C51.0713 46.1277 50.3408 36.7427 49.7875 30.5094C49.3668 25.7701 45.8531 21.9757 41.1873 21.1022C32.5662 19.4881 23.6682 19.7594 15.1 21.8976L14.5562 22.0333Z" fill="url(#paint3_linear_135_1455)"/>
</g>
<g filter="url(#filter7_ii_135_1455)">
<path fill-rule="evenodd" clip-rule="evenodd" d="M5.37681 27.1667C5.56448 18.5116 11.0811 10.8357 19.1376 7.55341C24.0865 5.53723 29.5681 5.2566 34.6323 6.77414C43.1899 9.33856 49.2197 16.9024 49.7864 25.8577C49.8791 27.323 49.9753 28.8573 50.0735 30.4418C50.1087 31.0101 49.3765 31.3373 48.9367 30.9757C48.4674 30.5898 47.8501 31.1444 48.0561 31.716C48.7969 33.7709 49.0182 36.052 48.602 38.3066C47.4512 44.5402 46.507 52.7378 46.9451 61.7549C47.2828 68.7056 48.6071 75.6482 50.0724 81.4714C50.7997 84.3618 50.5405 87.3447 49.512 89.9933C49.2825 90.5843 49.9461 91.165 50.419 90.7427C50.8419 90.3651 51.5661 90.6701 51.5431 91.2366C51.5069 92.1288 51.4709 92.9642 51.4361 93.734C51.2847 97.0861 49.0099 99.9837 45.7962 100.987L44.8912 101.269C35.2274 104.285 24.9744 104.65 15.2119 102.327C12.2421 101.62 10.0332 99.169 9.65881 96.1314C9.56699 95.3864 9.46719 94.5689 9.36074 93.686C9.25966 92.8477 10.3713 92.2893 11.0588 92.7796C11.7704 93.2871 12.5741 92.4065 12.2156 91.6093C11.0717 89.0659 10.6254 86.1545 11.0867 83.3386C11.9887 77.8324 12.4877 71.0206 11.7712 63.328C10.9593 54.6114 9.22478 46.905 7.50079 40.9294C6.8049 38.5173 6.86205 35.9882 7.53771 33.6627C7.71695 33.0458 7.01275 32.5165 6.57039 32.9824C6.14523 33.4301 5.27896 33.1374 5.28636 32.52C5.30871 30.6544 5.34009 28.8602 5.37681 27.1667ZM10.5447 39.9568C8.94614 34.2988 12.257 27.9402 18.0267 26.5981L18.3698 26.5183C24.8783 25.0043 31.6005 24.796 38.1454 25.9055C43.7432 26.8545 47.1242 32.7921 45.9264 38.3837C44.7332 43.9539 43.7304 51.2874 44.1105 59.3421C44.4211 65.9243 45.6754 72.5002 47.0115 77.8768C48.5874 84.2181 44.4494 91.0318 37.9412 91.9325L37.0273 92.0589C32.3135 92.7112 27.5522 92.8591 22.8243 92.5001C16.7237 92.0369 12.6546 85.5259 13.6773 79.463C14.5307 74.4037 15.0474 67.9918 14.3936 60.685C13.6646 52.5379 12.077 45.3803 10.5447 39.9568Z" fill="url(#paint4_linear_135_1455)"/>
</g>
<g filter="url(#filter8_ii_135_1455)">
<path d="M12.0907 46.3131C22.4566 42.7613 33.6145 42.2076 44.2812 44.7156L44.6748 44.8081C44.6748 44.8081 44.0049 50.1066 44.5084 61.2796C45.3567 72.3677 46.8377 77.2985 46.8377 77.2985L45.5717 77.5696C35.1128 79.8093 24.3423 80.1988 13.7488 78.7205C13.7488 78.7205 14.6775 70.1194 14.2654 62.6322C13.9113 56.1981 12.0907 46.3131 12.0907 46.3131Z" fill="url(#paint5_linear_135_1455)"/>
</g>
<defs>
<filter id="filter0_ii_135_1455" x="3.09351" y="-2.78621" width="55.9022" height="108.673" filterUnits="userSpaceOnUse" color-interpolation-filters="sRGB">
<feFlood flood-opacity="0" result="BackgroundImageFix"/>
<feBlend mode="normal" in="SourceGraphic" in2="BackgroundImageFix" result="shape"/>
<feColorMatrix in="SourceAlpha" type="matrix" values="0 0 0 0 0 0 0 0 0 0 0 0 0 0 0 0 0 0 127 0" result="hardAlpha"/>
<feOffset dx="4.35467" dy="-5.80623"/>
<feGaussianBlur stdDeviation="17.4187"/>
<feComposite in2="hardAlpha" operator="arithmetic" k2="-1" k3="1"/>
<feColorMatrix type="matrix" values="0 0 0 0 0 0 0 0 0 0 0 0 0 0 0 0 0 0 0.07 0"/>
<feBlend mode="normal" in2="shape" result="effect1_innerShadow_135_1455"/>
<feColorMatrix in="SourceAlpha" type="matrix" values="0 0 0 0 0 0 0 0 0 0 0 0 0 0 0 0 0 0 127 0" result="hardAlpha"/>
<feOffset dy="-0.725779"/>
<feGaussianBlur stdDeviation="1.45156"/>
<feComposite in2="hardAlpha" operator="arithmetic" k2="-1" k3="1"/>
<feColorMatrix type="matrix" values="0 0 0 0 0 0 0 0 0 0 0 0 0 0 0 0 0 0 0.25 0"/>
<feBlend mode="normal" in2="effect1_innerShadow_135_1455" result="effect2_innerShadow_135_1455"/>
</filter>
<filter id="filter1_di_135_1455" x="3.15829" y="3.76953" width="48.8366" height="101.852" filterUnits="userSpaceOnUse" color-interpolation-filters="sRGB">
<feFlood flood-opacity="0" result="BackgroundImageFix"/>
<feColorMatrix in="SourceAlpha" type="matrix" values="0 0 0 0 0 0 0 0 0 0 0 0 0 0 0 0 0 0 127 0" result="hardAlpha"/>
<feOffset dy="0.750549"/>
<feGaussianBlur stdDeviation="0.375275"/>
<feColorMatrix type="matrix" values="0 0 0 0 0.925374 0 0 0 0 0.925374 0 0 0 0 0.925374 0 0 0 0.37 0"/>
<feBlend mode="normal" in2="BackgroundImageFix" result="effect1_dropShadow_135_1455"/>
<feBlend mode="normal" in="SourceGraphic" in2="effect1_dropShadow_135_1455" result="shape"/>
<feColorMatrix in="SourceAlpha" type="matrix" values="0 0 0 0 0 0 0 0 0 0 0 0 0 0 0 0 0 0 127 0" result="hardAlpha"/>
<feOffset dx="-2.90311" dy="3.62889"/>
<feGaussianBlur stdDeviation="1.45156"/>
<feComposite in2="hardAlpha" operator="arithmetic" k2="-1" k3="1"/>
<feColorMatrix type="matrix" values="0 0 0 0 0 0 0 0 0 0 0 0 0 0 0 0 0 0 0.8 0"/>
<feBlend mode="normal" in2="shape" result="effect2_innerShadow_135_1455"/>
</filter>
<filter id="filter2_di_135_1455" x="4.21261" y="23.6084" width="46.7877" height="72.7566" filterUnits="userSpaceOnUse" color-interpolation-filters="sRGB">
<feFlood flood-opacity="0" result="BackgroundImageFix"/>
<feColorMatrix in="SourceAlpha" type="matrix" values="0 0 0 0 0 0 0 0 0 0 0 0 0 0 0 0 0 0 127 0" result="hardAlpha"/>
<feOffset dy="0.750549"/>
<feGaussianBlur stdDeviation="0.375275"/>
<feColorMatrix type="matrix" values="0 0 0 0 0.925374 0 0 0 0 0.925374 0 0 0 0 0.925374 0 0 0 0.37 0"/>
<feBlend mode="normal" in2="BackgroundImageFix" result="effect1_dropShadow_135_1455"/>
<feBlend mode="normal" in="SourceGraphic" in2="effect1_dropShadow_135_1455" result="shape"/>
<feColorMatrix in="SourceAlpha" type="matrix" values="0 0 0 0 0 0 0 0 0 0 0 0 0 0 0 0 0 0 127 0" result="hardAlpha"/>
<feOffset dx="-2.90312" dy="3.62889"/>
<feGaussianBlur stdDeviation="1.45156"/>
<feComposite in2="hardAlpha" operator="arithmetic" k2="-1" k3="1"/>
<feColorMatrix type="matrix" values="0 0 0 0 0 0 0 0 0 0 0 0 0 0 0 0 0 0 0.8 0"/>
<feBlend mode="normal" in2="shape" result="effect2_innerShadow_135_1455"/>
</filter>
<filter id="filter3_d_135_1455" x="40.9188" y="6.77071" width="10.128" height="12.1927" filterUnits="userSpaceOnUse" color-interpolation-filters="sRGB">
<feFlood flood-opacity="0" result="BackgroundImageFix"/>
<feColorMatrix in="SourceAlpha" type="matrix" values="0 0 0 0 0 0 0 0 0 0 0 0 0 0 0 0 0 0 127 0" result="hardAlpha"/>
<feOffset dy="-1.45156"/>
<feGaussianBlur stdDeviation="0.725779"/>
<feColorMatrix type="matrix" values="0 0 0 0 0 0 0 0 0 0 0 0 0 0 0 0 0 0 0.25 0"/>
<feBlend mode="normal" in2="BackgroundImageFix" result="effect1_dropShadow_135_1455"/>
<feBlend mode="normal" in="SourceGraphic" in2="effect1_dropShadow_135_1455" result="shape"/>
</filter>
<filter id="filter4_d_135_1455" x="41.6446" y="9.67383" width="8.67641" height="10.7411" filterUnits="userSpaceOnUse" color-interpolation-filters="sRGB">
<feFlood flood-opacity="0" result="BackgroundImageFix"/>
<feColorMatrix in="SourceAlpha" type="matrix" values="0 0 0 0 0 0 0 0 0 0 0 0 0 0 0 0 0 0 127 0" result="hardAlpha"/>
<feOffset dy="0.725779"/>
<feGaussianBlur stdDeviation="0.362889"/>
<feColorMatrix type="matrix" values="0 0 0 0 1 0 0 0 0 1 0 0 0 0 1 0 0 0 0.25 0"/>
<feBlend mode="normal" in2="BackgroundImageFix" result="effect1_dropShadow_135_1455"/>
<feBlend mode="normal" in="SourceGraphic" in2="effect1_dropShadow_135_1455" result="shape"/>
</filter>
<filter id="filter5_d_135_1455" x="3.62095" y="8.14815" width="9.54179" height="13.2835" filterUnits="userSpaceOnUse" color-interpolation-filters="sRGB">
<feFlood flood-opacity="0" result="BackgroundImageFix"/>
<feColorMatrix in="SourceAlpha" type="matrix" values="0 0 0 0 0 0 0 0 0 0 0 0 0 0 0 0 0 0 127 0" result="hardAlpha"/>
<feOffset dy="-1.45156"/>
<feGaussianBlur stdDeviation="0.725779"/>
<feColorMatrix type="matrix" values="0 0 0 0 0 0 0 0 0 0 0 0 0 0 0 0 0 0 0.25 0"/>
<feBlend mode="normal" in2="BackgroundImageFix" result="effect1_dropShadow_135_1455"/>
<feBlend mode="normal" in="SourceGraphic" in2="effect1_dropShadow_135_1455" result="shape"/>
</filter>
<filter id="filter6_di_135_1455" x="3.12484" y="20.0645" width="49.4096" height="72.3909" filterUnits="userSpaceOnUse" color-interpolation-filters="sRGB">
<feFlood flood-opacity="0" result="BackgroundImageFix"/>
<feColorMatrix in="SourceAlpha" type="matrix" values="0 0 0 0 0 0 0 0 0 0 0 0 0 0 0 0 0 0 127 0" result="hardAlpha"/>
<feOffset dy="0.750549"/>
<feGaussianBlur stdDeviation="0.375275"/>
<feColorMatrix type="matrix" values="0 0 0 0 0.925374 0 0 0 0 0.925374 0 0 0 0 0.925374 0 0 0 0.37 0"/>
<feBlend mode="normal" in2="BackgroundImageFix" result="effect1_dropShadow_135_1455"/>
<feBlend mode="normal" in="SourceGraphic" in2="effect1_dropShadow_135_1455" result="shape"/>
<feColorMatrix in="SourceAlpha" type="matrix" values="0 0 0 0 0 0 0 0 0 0 0 0 0 0 0 0 0 0 127 0" result="hardAlpha"/>
<feOffset dx="-2.90311" dy="3.62889"/>
<feGaussianBlur stdDeviation="1.45156"/>
<feComposite in2="hardAlpha" operator="arithmetic" k2="-1" k3="1"/>
<feColorMatrix type="matrix" values="0 0 0 0 0 0 0 0 0 0 0 0 0 0 0 0 0 0 0.8 0"/>
<feBlend mode="normal" in2="shape" result="effect2_innerShadow_135_1455"/>
</filter>
<filter id="filter7_ii_135_1455" x="5.28625" y="0.00285244" width="50.6121" height="103.833" filterUnits="userSpaceOnUse" color-interpolation-filters="sRGB">
<feFlood flood-opacity="0" result="BackgroundImageFix"/>
<feBlend mode="normal" in="SourceGraphic" in2="BackgroundImageFix" result="shape"/>
<feColorMatrix in="SourceAlpha" type="matrix" values="0 0 0 0 0 0 0 0 0 0 0 0 0 0 0 0 0 0 127 0" result="hardAlpha"/>
<feOffset dx="4.35467" dy="-5.80623"/>
<feGaussianBlur stdDeviation="17.4187"/>
<feComposite in2="hardAlpha" operator="arithmetic" k2="-1" k3="1"/>
<feColorMatrix type="matrix" values="0 0 0 0 0 0 0 0 0 0 0 0 0 0 0 0 0 0 0.07 0"/>
<feBlend mode="normal" in2="shape" result="effect1_innerShadow_135_1455"/>
<feColorMatrix in="SourceAlpha" type="matrix" values="0 0 0 0 0 0 0 0 0 0 0 0 0 0 0 0 0 0 127 0" result="hardAlpha"/>
<feOffset dy="-0.725779"/>
<feGaussianBlur stdDeviation="1.45156"/>
<feComposite in2="hardAlpha" operator="arithmetic" k2="-1" k3="1"/>
<feColorMatrix type="matrix" values="0 0 0 0 0 0 0 0 0 0 0 0 0 0 0 0 0 0 0.09 0"/>
<feBlend mode="normal" in2="effect1_innerShadow_135_1455" result="effect2_innerShadow_135_1455"/>
</filter>
<filter id="filter8_ii_135_1455" x="12.0907" y="37.3642" width="39.1017" height="42.2349" filterUnits="userSpaceOnUse" color-interpolation-filters="sRGB">
<feFlood flood-opacity="0" result="BackgroundImageFix"/>
<feBlend mode="normal" in="SourceGraphic" in2="BackgroundImageFix" result="shape"/>
<feColorMatrix in="SourceAlpha" type="matrix" values="0 0 0 0 0 0 0 0 0 0 0 0 0 0 0 0 0 0 127 0" result="hardAlpha"/>
<feOffset dx="4.35467" dy="-5.80623"/>
<feGaussianBlur stdDeviation="17.4187"/>
<feComposite in2="hardAlpha" operator="arithmetic" k2="-1" k3="1"/>
<feColorMatrix type="matrix" values="0 0 0 0 0 0 0 0 0 0 0 0 0 0 0 0 0 0 0.07 0"/>
<feBlend mode="normal" in2="shape" result="effect1_innerShadow_135_1455"/>
<feColorMatrix in="SourceAlpha" type="matrix" values="0 0 0 0 0 0 0 0 0 0 0 0 0 0 0 0 0 0 127 0" result="hardAlpha"/>
<feOffset dy="-0.725779"/>
<feGaussianBlur stdDeviation="1.45156"/>
<feComposite in2="hardAlpha" operator="arithmetic" k2="-1" k3="1"/>
<feColorMatrix type="matrix" values="0 0 0 0 0 0 0 0 0 0 0 0 0 0 0 0 0 0 0.25 0"/>
<feBlend mode="normal" in2="effect1_innerShadow_135_1455" result="effect2_innerShadow_135_1455"/>
</filter>
<linearGradient id="paint0_linear_135_1455" x1="26.6512" y1="101.581" x2="-7.72833" y2="92.6921" gradientUnits="userSpaceOnUse">
<stop stop-color="#D8D8D8"/>
<stop offset="1" stop-color="white"/>
</linearGradient>
<linearGradient id="paint1_linear_135_1455" x1="59.8572" y1="290.566" x2="-47.9912" y2="251.176" gradientUnits="userSpaceOnUse">
<stop stop-color="#E8EAE9"/>
<stop offset="0.498386" stop-color="#707072"/>
<stop offset="1" stop-color="#2F3032"/>
</linearGradient>
<linearGradient id="paint2_linear_135_1455" x1="51.5972" y1="226.362" x2="-40.5484" y2="175.394" gradientUnits="userSpaceOnUse">
<stop stop-color="#E8EAE9"/>
<stop offset="0.498386" stop-color="#707072"/>
<stop offset="1" stop-color="#2F3032"/>
</linearGradient>
<linearGradient id="paint3_linear_135_1455" x1="57.1465" y1="218.882" x2="-37.8364" y2="166.039" gradientUnits="userSpaceOnUse">
<stop stop-color="#E8EAE9"/>
<stop offset="0.498386" stop-color="#707072"/>
<stop offset="1" stop-color="#2F3032"/>
</linearGradient>
<linearGradient id="paint4_linear_135_1455" x1="27.8836" y1="99.3013" x2="-3.15562" y2="92.5076" gradientUnits="userSpaceOnUse">
<stop stop-color="#D8D8D8"/>
<stop offset="1" stop-color="white"/>
</linearGradient>
<linearGradient id="paint5_linear_135_1455" x1="42.3068" y1="86.9339" x2="8.59695" y2="73.2435" gradientUnits="userSpaceOnUse">
<stop stop-color="#D2D2D2"/>
<stop offset="0.350909" stop-color="#CACACA"/>
<stop offset="1" stop-color="#F6F6F6"/>
</linearGradient>
</defs>
</svg>
